<svg width="50" height="50" viewBox="0 0 50 50" fill="none" xmlns="http://www.w3.org/2000/svg">
<g clip-path="url(#clip0_4_41)">
<path d="M35.5892 24.2526L34.8818 24.9594L35.5886 25.6668L46.9186 37.0069L46.9196 37.0079C49.6541 39.7372 49.6541 44.183 46.9196 46.9123L46.9178 46.9142C44.1784 49.6623 39.7415 49.6619 37.0045 46.9144L37.0029 46.9128L25.6749 35.5927L24.968 34.8863L24.2612 35.5927L12.9332 46.9128L12.9313 46.9146C10.1965 49.6617 5.75973 49.6624 3.02027 46.9142L3.01846 46.9123C0.283887 44.183 0.283887 39.7372 3.01846 37.0079L3.01951 37.0068L14.3475 25.6667L15.0541 24.9594L14.3469 24.2526L3.01889 12.9326L3.01846 12.9321C0.283887 10.2028 0.283887 5.75719 3.01846 3.02787L3.02026 3.02607C5.75973 0.277844 10.1965 0.278497 12.9313 3.02562L12.9332 3.02745L24.2612 14.3473L24.968 15.0536L25.6749 14.3473L37.0029 3.02745L37.0045 3.02584C39.7415 0.278296 44.1784 0.27797 46.9178 3.02607L46.9196 3.02787C49.6541 5.75719 49.6541 10.2028 46.9196 12.9321L46.9192 12.9325L35.5892 24.2526Z" fill="#E74C3C" stroke="black" stroke-width="2"/>
</g>
<defs>
<clipPath id="clip0_4_41">
<rect width="50" height="50" fill="white"/>
</clipPath>
</defs>
</svg>
