<svg width="50" height="50" viewBox="0 0 50 50" fill="none" xmlns="http://www.w3.org/2000/svg">
<g clip-path="url(#clip0_4_41)">
<path d="M35.2358 23.8989L34.1747 24.959L35.2349 26.0202L46.5649 37.3603L46.5664 37.3617C49.1052 39.8957 49.1052 44.0245 46.5664 46.5585L46.5636 46.5612C44.0196 49.1133 39.9003 49.1128 37.3587 46.5615L37.3563 46.5591L26.0283 35.239L24.968 34.1795L23.9077 35.239L12.5797 46.5591L12.577 46.5618C10.0377 49.1125 5.91858 49.1135 3.37438 46.5612L3.37167 46.5585C0.832816 44.0245 0.832816 39.8957 3.37167 37.3617L3.37325 37.3602L14.7013 26.0201L15.7612 24.959L14.7003 23.8989L3.37232 12.5789L3.37167 12.5782C0.832816 10.0443 0.832816 5.91575 3.37167 3.38177L3.37438 3.37906C5.91858 0.826722 10.0377 0.827702 12.577 3.37838L12.5798 3.38113L23.9078 14.701L24.968 15.7605L26.0283 14.701L37.3563 3.38113L37.3587 3.37872C39.9003 0.8274 44.0196 0.826911 46.5636 3.37906L46.5664 3.38177C49.1052 5.91575 49.1052 10.0443 46.5664 12.5782L46.5658 12.5788L35.2358 23.8989Z" fill="#E74C3C" stroke="black" stroke-width="3"/>
</g>
<defs>
<clipPath id="clip0_4_41">
<rect width="50" height="50" fill="white"/>
</clipPath>
</defs>
</svg>
